<?xml version="1.0" encoding="utf-8"?>
<!-- Generator: Adobe Illustrator 19.0.0, SVG Export Plug-In . SVG Version: 6.00 Build 0)  -->
<svg version="1.1" id="图层_1" xmlns="http://www.w3.org/2000/svg" xmlns:xlink="http://www.w3.org/1999/xlink" x="0px" y="0px"
	 viewBox="0 0 10 10" style="enable-background:new 0 0 10 10;" xml:space="preserve">
<style type="text/css">
	.st0{fill:#959EC5;}
</style>
<path class="st0" d="M5,10c2.8,0,5-2.2,5-5S7.8,0,5,0S0,2.2,0,5S2.2,10,5,10z M2.6,6.6L5.3,4H4.5C4.2,4,4,3.8,4,3.5S4.2,3,4.5,3H6h1
	v1v1.5C7,5.8,6.8,6,6.5,6S6,5.8,6,5.5V4.7L3.4,7.3c-0.2,0.2-0.5,0.2-0.7,0S2.5,6.8,2.6,6.6z"/>
</svg>
